#!OML:ASF F:\VICON\USERDATA\INSTALL\Justin_Nancy\Justin_Nancy.ASF
:FULLY-SPECIFIED
:DEGREES
200
root 1.01812 17.4457 -16.264 12.5142 -1.27574 -0.497419
lowerback 17.3475 0.0407443 0.786344
upperback 1.63102 0.47491 3.18776
thorax -8.00424 0.257724 2.87333
lowerneck -18.0983 -3.80463 -9.76808
upperneck 20.5462 -3.59535 4.6852
head 9.78278 -1.89849 2.76384
rclavicle -3.18055e-015 -2.14687e-014
rhumerus -28.5888 4.81488 -81.7093
rradius 64.2103
rwrist -1.52194
rhand -12.8158 16.276
rfingers 7.12502
rthumb 13.2708 -13.2815
lclavicle -3.18055e-015 -2.14687e-014
lhumerus -27.009 -2.17248 86.9617
lradius 56.4739
lwrist 4.00797
lhand -16.8289 20.5241
lfingers 7.12502
lthumb 9.40048 50.2944
rfemur -29.115 2.02191 20.2798
rtibia 35.7768
rfoot -14.2985 -8.58259
rtoes 5.35744
lfemur -29.7706 -2.07809 -18.1424
ltibia 35.8584
lfoot -16.1764 3.8442
ltoes -1.33636
201
root 1.02445 17.4167 -16.3101 13.0428 -1.24248 -0.299234
lowerback 17.8652 0.00201215 0.652129
upperback 1.72347 0.403475 3.12929
thorax -8.18649 0.227347 2.909
lowerneck -18.0117 -3.73683 -9.81875
upperneck 20.0618 -3.50755 4.78085
head 9.59109 -1.84457 2.81359
rclavicle -2.38542e-015 -7.15625e-015
rhumerus -28.5918 4.86562 -81.6053
rradius 64.8118
rwrist -1.45353
rhand -12.9831 16.3638
rfingers 7.12502
rthumb 13.1095 -13.2041
lclavicle -2.38542e-015 -7.15625e-015
lhumerus -26.8183 -2.09973 86.7938
lradius 56.7157
lwrist 4.12059
lhand -19.719 13.2371
lfingers 7.12502
lthumb 6.6111 43.1139
rfemur -30.3631 1.77923 20.0547
rtibia 36.6768
rfoot -14.5841 -8.44517
rtoes 5.204
lfemur -30.9549 -2.09525 -18.3553
ltibia 36.5808
lfoot -16.3503 3.76683
ltoes -1.68071
202
root 1.02823 17.3885 -16.3594 13.5527 -1.14568 -0.047042
lowerback 18.4548 -0.0507771 0.451406
upperback 1.83636 0.302737 3.10434
thorax -8.38414 0.186213 3.02827
lowerneck -17.9236 -3.66659 -9.91347
upperneck 19.4879 -3.38138 4.78799
head 9.36576 -1.7845 2.8432
rclavicle 5.56597e-015 7.15625e-015
rhumerus -28.5053 4.90422 -81.4216
rradius 65.3541
rwrist -1.53896
rhand -12.8459 16.285
rfingers 7.12502
rthumb 13.2418 -13.2744
lclavicle 5.56597e-015 7.15625e-015
lhumerus -26.5785 -2.03935 86.6569
lradius 56.822
lwrist 4.11594
lhand -18.9158 19.7596
lfingers 7.12502
lthumb 7.38641 49.6107
rfemur -31.5977 1.47193 19.8134
rtibia 37.5686
rfoot -14.775 -8.34916
rtoes 4.97068
lfemur -32.1161 -2.11886 -18.6139
ltibia 37.2811
lfoot -16.4632 3.60148
ltoes -1.13444
203
root 1.02888 17.3613 -16.4112 14.0331 -1.13072 -0.0494405
lowerback 19.2204 -0.0432288 0.418669
upperback 1.95797 0.321018 3.11935
thorax -8.67276 0.197718 3.06829
lowerneck -18.1468 -3.62875 -9.8269
upperneck 19.1102 -3.30832 4.73226
head 9.26587 -1.74156 2.81373
rclavicle -1.55052e-014 1.35174e-014
rhumerus -28.376 4.88217 -81.2345
rradius 65.8006
rwrist -1.63862
rhand -12.7874 16.0507
rfingers 7.12502
rthumb 13.2981 -13.505
lclavicle -1.55052e-014 1.35174e-014
lhumerus -26.4138 -2.01576 86.453
lradius 57.0418
lwrist 4.12163
lhand -16.375 23.3225
lfingers 7.12502
lthumb 9.83836 53.0727
rfemur -32.7989 1.35238 19.8503
rtibia 38.4539
rfoot -15.0051 -8.36661
rtoes 4.99057
lfemur -33.2526 -2.00504 -18.5954
ltibia 37.9615
lfoot -16.4743 3.41195
ltoes -1.06504
204
root 1.03186 17.3321 -16.4596 14.6034 -1.27877 0.00739013
lowerback 19.8759 0.0603877 0.354163
upperback 2.14256 0.442996 3.02921
thorax -8.83444 0.256135 2.98032
lowerneck -18.6686 -3.68978 -9.61887
upperneck 18.834 -3.39251 4.73999
head 9.26605 -1.75409 2.76427
rclavicle -1.82882e-014 1.90833e-014
rhumerus -28.3858 4.7229 -81.0774
rradius 66.4983
rwrist -1.71622
rhand -13.0473 15.8489
rfingers 7.12502
rthumb 13.0476 -13.723
lclavicle -1.82882e-014 1.90833e-014
lhumerus -26.1646 -2.14164 86.2024
lradius 57.3508
lwrist 4.2471
lhand -15.8877 22.6394
lfingers 7.12502
lthumb 10.3085 52.3668
rfemur -34.1151 1.31363 19.7798
rtibia 39.3201
rfoot -15.1714 -8.34463
rtoes 4.62345
lfemur -34.4507 -1.89456 -18.6637
ltibia 38.6445
lfoot -16.5437 3.42489
ltoes -1.07233
205
root 1.036 17.3 -16.5097 15.3422 -1.13531 0.252075
lowerback 20.4143 0.0489404 0.223413
upperback 2.18101 0.402836 2.96072
thorax -9.08411 0.242228 2.99806
lowerneck -18.6589 -3.73038 -9.66336
upperneck 18.2988 -3.46626 4.92495
head 9.08815 -1.76366 2.82055
rclavicle 6.36111e-015 4.77083e-015
rhumerus -28.5727 4.59705 -80.8622
rradius 67.119
rwrist -1.65072
rhand -13.2905 15.9966
rfingers 7.12502
rthumb 12.8131 -13.5901
lclavicle 6.36111e-015 4.77083e-015
lhumerus -26.1422 -2.22774 86.0079
lradius 57.632
lwrist 4.29697
lhand -18.0318 17.0128
lfingers 7.12502
lthumb 8.23965 46.8321
rfemur -35.5958 0.989174 19.5561
rtibia 40.1552
rfoot -15.2582 -8.29951
rtoes 4.39088
lfemur -35.882 -2.11373 -18.8557
ltibia 39.3261
lfoot -16.5939 3.48717
ltoes -0.922543
206
root 1.04244 17.2678 -16.5558 16.1118 -0.948923 0.438602
lowerback 20.8367 -0.000177062 0.196773
upperback 2.2264 0.335388 2.91572
thorax -9.26042 0.211574 2.9882
lowerneck -18.6902 -3.85862 -9.68466
upperneck 17.9233 -3.66367 5.1025
head 8.9833 -1.83236 2.85479
rclavicle -9.14409e-015 -2.22639e-014
rhumerus -28.7691 4.52515 -80.568
rradius 67.6663
rwrist -1.69486
rhand -13.3614 15.8237
rfingers 7.12502
rthumb 12.7448 -13.7673
lclavicle -9.14409e-015 -2.22639e-014
lhumerus -26.3084 -2.29108 85.7685
lradius 57.9371
lwrist 4.28812
lhand -19.9242 17.8068
lfingers 7.12502
lthumb 6.41296 47.6897
rfemur -37.076 0.658277 19.3911
rtibia 40.9563
rfoot -15.3132 -8.25189
rtoes 4.27586
lfemur -37.3207 -2.25541 -19.0209
ltibia 39.9754
lfoot -16.6305 3.45934
ltoes -0.889327
